<svg width="118" height="175" viewBox="0 0 118 175" fill="none" xmlns="http://www.w3.org/2000/svg"><g clip-path="url(#clip0)"><path d="M31.0292 83.9436C34.4962 83.9436 37.3067 81.1332 37.3067 77.6662C37.3067 74.1992 34.4962 71.3887 31.0292 71.3887C27.5622 71.3887 24.7517 74.1992 24.7517 77.6662C24.7517 81.1332 27.5622 83.9436 31.0292 83.9436Z" fill="#A46648"/><path d="M86.6166 83.9139C90.0836 83.9139 92.8941 81.1034 92.8941 77.6364C92.8941 74.1694 90.0836 71.3589 86.6166 71.3589C83.1496 71.3589 80.3391 74.1694 80.3391 77.6364C80.3391 81.1034 83.1496 83.9139 86.6166 83.9139Z" fill="#A46648"/><path d="M58.9546 24.4043C74.6527 24.4043 87.3787 37.1303 87.3787 52.8284C87.3787 68.5265 74.6527 81.2525 58.9546 81.2525C43.2566 81.2525 30.5305 68.5265 30.5305 52.8284C30.5305 37.1303 43.2566 24.4043 58.9546 24.4043Z" fill="#3D3D3D"/><path d="M26.2353 51.6662C31.4746 57.1588 40.1744 57.364 45.6671 52.1247L50.9941 47.0433C56.4868 41.804 56.692 33.1041 51.4527 27.6115L46.9083 22.8474C41.669 17.3548 32.9691 17.1496 27.4765 22.3889L22.1494 27.4704C16.6568 32.7097 16.4516 41.4095 21.6909 46.9021L26.2353 51.6662Z" fill="#3D3D3D"/><path d="M91.4268 51.6662C86.1875 57.1588 77.4877 57.364 71.9951 52.1247L66.668 47.0433C61.1754 41.804 60.9702 33.1041 66.2095 27.6115L70.7539 22.8474C75.9932 17.3548 84.693 17.1496 90.1856 22.3889L95.5127 27.4704C101.005 32.7097 101.211 41.4095 95.9712 46.9021L91.4268 51.6662Z" fill="#3D3D3D"/><path d="M53.874 7.44922C46.2835 7.44922 40.1299 13.6028 40.1299 21.1934V45.567C40.1299 53.1575 46.2835 59.3112 53.874 59.3112H63.7862C71.3767 59.3112 77.5303 53.1575 77.5303 45.567V21.1934C77.5303 13.6028 71.3767 7.44922 63.7862 7.44922H53.874Z" fill="#3D3D3D"/><path d="M58.9546 87.2363C54.0662 87.2363 50.1033 91.1992 50.1033 96.0877V112.045C50.1033 116.934 54.0662 120.896 58.9546 120.896C63.8431 120.896 67.806 116.934 67.806 112.045V96.0877C67.806 91.1992 63.8431 87.2363 58.9546 87.2363Z" fill="#A46648"/><path d="M49.5412 103.194C48.8885 103.194 48.3594 103.723 48.3594 104.376V114.788C48.3594 120.64 53.1037 125.385 58.9561 125.385C64.8085 125.385 69.5528 120.64 69.5528 114.788V104.376C69.5528 103.723 69.0237 103.194 68.3709 103.194H49.5412Z" fill="#FDB02A"/><path d="M86.506 66.1556C86.506 60.3411 81.7923 55.6274 75.9779 55.6274H41.6819C35.8675 55.6274 31.1538 60.3411 31.1538 66.1556V92.3756C31.1538 99.2076 36.6925 104.746 43.5245 104.746H74.1353C80.9673 104.746 86.506 99.2076 86.506 92.3756V66.1556Z" fill="#A46648"/><path d="M49.8539 66.0991C45.9982 66.0991 42.8726 69.2248 42.8726 73.0805V77.5685C42.8726 81.4242 45.9982 84.5499 49.8539 84.5499C53.7096 84.5499 56.8353 81.4242 56.8353 77.5685V73.0805C56.8353 69.2248 53.7096 66.0991 49.8539 66.0991Z" fill="white"/><path d="M51.633 72.0971C51.633 73.4954 50.5025 74.6294 49.1057 74.6351V77.4441C49.1057 79.1655 50.501 80.5608 52.2224 80.5608C53.9438 80.5608 55.3391 79.1655 55.3391 77.4441V73.7041C55.3391 71.9827 53.9438 70.5874 52.2224 70.5874C51.8803 70.5874 51.5509 70.6425 51.243 70.7445C51.4901 71.1359 51.633 71.5999 51.633 72.0971Z" fill="#3D3D3D"/><path d="M68.0551 66.0991C64.1994 66.0991 61.0737 69.2248 61.0737 73.0805V77.5685C61.0737 81.4242 64.1994 84.5499 68.0551 84.5499C71.9108 84.5499 75.0364 81.4242 75.0364 77.5685V73.0805C75.0364 69.2248 71.9108 66.0991 68.0551 66.0991Z" fill="white"/><path d="M65.0507 72.0966C65.0507 73.4792 63.9454 74.6037 62.5701 74.6341V77.5189C62.5701 79.2393 63.9646 80.6338 65.685 80.6338C67.4054 80.6338 68.7999 79.2393 68.7999 77.5189V73.5964C68.7999 71.876 67.4054 70.4814 65.685 70.4814C65.3083 70.4814 64.9472 70.5483 64.6129 70.6709C64.8894 71.0774 65.0507 71.568 65.0507 72.0966Z" fill="#3D3D3D"/><path d="M33.4944 158.071C32.2626 157.154 32.0074 155.412 32.9242 154.181L35.7586 150.373C36.6755 149.141 38.4174 148.886 39.6491 149.803C40.8809 150.719 41.1361 152.461 40.2193 153.693L37.3849 157.501C36.4681 158.733 34.7261 158.988 33.4944 158.071Z" fill="#A46648"/><path d="M43.826 161.964C42.6346 165.631 38.696 167.638 35.029 166.446C31.362 165.255 29.3552 161.316 30.5467 157.649L33.8598 147.453C35.0513 143.786 38.9898 141.779 42.6568 142.971C46.3238 144.162 48.3306 148.101 47.1391 151.768L43.826 161.964Z" fill="#A46648"/><path d="M47.1393 151.767C45.9478 155.434 42.0092 157.441 38.3422 156.25C34.6753 155.058 32.6685 151.12 33.8599 147.453L38.8681 132.039C40.0596 128.372 43.9981 126.365 47.6651 127.557C51.3321 128.748 53.3389 132.687 52.1474 136.354L47.1393 151.767Z" fill="#A46648"/><path d="M52.1471 136.354C50.9556 140.021 47.017 142.028 43.3501 140.837C39.6831 139.645 37.6763 135.707 38.8677 132.04L43.8759 116.626C45.0674 112.959 49.0059 110.952 52.6729 112.144C56.3399 113.335 58.3467 117.274 57.1552 120.941L52.1471 136.354Z" fill="#A46648"/><path d="M47.1477 156.024C41.7601 154.879 36.4639 158.318 35.3187 163.706L28.4241 196.142L47.9349 200.289L54.8296 167.853C55.9748 162.465 52.5354 157.169 47.1477 156.024Z" fill="#1CB0F6"/><path d="M51.9171 133.587C46.5294 132.441 41.2333 135.881 40.0881 141.269L35.3189 163.706C34.1737 169.094 37.613 174.39 43.0007 175.535C48.3884 176.68 53.6845 173.241 54.8297 167.853L59.5989 145.416C60.7441 140.028 57.3048 134.732 51.9171 133.587Z" fill="#1CB0F6"/><path d="M67.9929 156.302C62.4849 156.302 58.0195 160.768 58.0195 166.276V199.437H77.9663V166.276C77.9663 160.768 73.5009 156.302 67.9929 156.302Z" fill="#1CB0F6"/><path d="M67.9929 133.363C62.4849 133.363 58.0195 137.828 58.0195 143.336V166.275C58.0195 171.783 62.4849 176.248 67.9929 176.248C73.5009 176.248 77.9663 171.783 77.9663 166.275V143.336C77.9663 137.828 73.5009 133.363 67.9929 133.363Z" fill="#1CB0F6"/><path d="M51.35 132.615C45.0157 132.615 39.8806 137.75 39.8806 144.085C39.8806 150.419 45.0157 155.554 51.35 155.554H66.5594C72.8937 155.554 78.0288 150.419 78.0288 144.085C78.0288 137.75 72.8937 132.615 66.5594 132.615H51.35Z" fill="#1CB0F6"/><path d="M58.8298 126.881C67.1608 126.881 73.9146 133.635 73.9146 141.966C73.9146 150.297 67.1608 150.817 58.8298 150.817C50.4988 150.817 43.7451 150.297 43.7451 141.966C43.7451 133.635 50.4988 126.881 58.8298 126.881Z" fill="#1CB0F6"/><path d="M71.7952 128.625C71.7952 128.625 64.4398 128.625 58.8921 128.625C53.3445 128.625 46.1138 128.625 46.1138 128.625V133.862C46.1138 133.862 53.5938 133.862 59.0168 133.862C64.4398 133.862 71.7952 133.862 71.7952 133.862V128.625Z" fill="#FF4B4B"/><path d="M54.0925 129.43H51.3499V135.352H54.0925V129.43Z" fill="#1CB0F6"/><path d="M66.6349 129.413H63.8164V135.361H66.6483L66.6349 129.413Z" fill="#1CB0F6"/><path d="M55.3571 109.982C47.6358 109.982 41.3765 116.241 41.3765 123.963C41.3765 126.996 43.8354 129.455 46.8688 129.455H70.9869C74.0203 129.455 76.4792 126.996 76.4792 123.963C76.4792 116.241 70.2199 109.982 62.4986 109.982H55.3571Z" fill="#FDB02A"/><path d="M85.301 129.325C84.5882 127.965 82.9076 127.44 81.5476 128.153L77.3434 130.357C75.9833 131.07 75.4588 132.75 76.1716 134.11C76.8845 135.47 78.565 135.995 79.925 135.282L84.1293 133.078C85.4893 132.365 86.0139 130.685 85.301 129.325Z" fill="#A46648"/><path d="M75.789 144.548C79.094 146.534 83.383 145.465 85.3689 142.16C87.3547 138.855 86.2853 134.566 82.9804 132.58L77.9045 129.302C74.5995 127.316 70.3105 128.385 68.3246 131.69C66.3388 134.995 67.4082 139.284 70.7132 141.27L75.789 144.548Z" fill="#A46648"/><path d="M69.011 130.551C66.3815 133.371 66.5357 137.789 69.3556 140.419C72.1755 143.048 76.5931 142.894 79.2227 140.074L90.2757 128.221C92.9053 125.401 92.751 120.984 89.9311 118.354C87.1112 115.724 82.6936 115.879 80.064 118.699L69.011 130.551Z" fill="#A46648"/><path d="M83.4502 130.114C87.1566 131.177 91.0227 129.034 92.0855 125.328C93.1483 121.621 91.0052 117.755 87.2989 116.693L71.72 112.225C68.0136 111.163 64.1475 113.306 63.0847 117.012C62.022 120.718 64.165 124.584 67.8713 125.647L83.4502 130.114Z" fill="#A46648"/><path d="M66.2835 96.7112C71.9438 96.7112 76.5326 92.1225 76.5326 86.4621V84.7432C76.5326 84.7432 71.1096 84.7432 67.9306 84.7432C64.7515 84.7432 60.4505 84.7432 60.4505 84.7432H57.6455C57.6455 84.7432 54.9358 84.998 52.8827 84.0373C49.7292 82.5615 49.4743 82.3396 47.6722 82.1875C42.4985 81.7512 41.3765 84.7432 41.3765 84.7432V86.4621C41.3765 92.1225 45.9652 96.7112 51.6256 96.7112H66.2835Z" fill="#A46648"/><path d="M51.6256 65.2949C45.9652 65.2949 41.3765 69.8837 41.3765 75.5441V77.263H76.5326V75.5441C76.5326 69.8837 71.9438 65.2949 66.2835 65.2949H51.6256Z" fill="#A46648"/><path d="M57.9573 82.8047C56.649 82.8047 55.5886 83.8651 55.5886 85.1734C55.5886 86.4816 56.649 87.542 57.9573 87.542H59.952C61.2602 87.542 62.3206 86.4816 62.3206 85.1734C62.3206 83.8651 61.2602 82.8047 59.952 82.8047H57.9573Z" fill="#86401F"/><path d="M58.8868 86.8301C57.6162 86.8301 56.5859 85.7999 56.5859 84.5293C56.5859 83.2587 58.791 80.311 58.8868 80.311C58.9825 80.311 61.1876 83.2587 61.1876 84.5293C61.1876 85.7999 60.1574 86.8301 58.8868 86.8301Z" fill="#86401F"/><path d="M62.1335 72.4009H70.9849" stroke="#884727" stroke-width="2.24401" stroke-linecap="round"/><path d="M46.2334 67.63C50.8703 65.6371 55.1319 67.5208 56.683 68.7116" stroke="#884627" stroke-width="2.30609" stroke-linecap="round" stroke-linejoin="round"/><path d="M60.0767 53.1338H27.7163L31.1646 71.4075L60.0874 56.131L60.0767 53.1338Z" fill="#FDB02A"/><path d="M57.594 53.1338H89.9543L86.506 71.4075L57.5833 56.131L57.594 53.1338Z" fill="#FDB02A"/><path d="M68.8866 41.7693C63.027 41.2686 57.8707 45.6127 57.3701 51.4723L57.1145 54.4649C62.9741 54.9655 68.1303 50.6214 68.631 44.7618L68.8866 41.7693Z" fill="#FDB02A"/><path d="M60.7945 54.3604C54.9349 54.861 49.7787 50.5169 49.278 44.6573L49.0225 41.6648C54.8821 41.1641 60.0383 45.5083 60.539 51.3679L60.7945 54.3604Z" fill="#FDB02A"/><path fill-rule="evenodd" clip-rule="evenodd" d="M48.4162 86.225C48.8995 85.9579 49.508 86.1332 49.7751 86.6166C50.2446 87.4662 50.97 88.4299 52.1523 89.1169C53.3246 89.7982 55.0378 90.2607 57.5814 89.9573C58.1298 89.8919 58.6274 90.2835 58.6928 90.8319C58.7582 91.3803 58.3667 91.8778 57.8183 91.9432C54.9118 92.2899 52.75 91.7774 51.1474 90.8462C49.5547 89.9207 48.6051 88.6344 48.0246 87.584C47.7575 87.1006 47.9328 86.4922 48.4162 86.225Z" fill="#884727"/></g><defs><clipPath id="clip0"><rect width="118" height="175" fill="white"/></clipPath></defs></svg>